<svg xmlns="http://www.w3.org/2000/svg" viewBox="0 0 1440 900" width="1440" height="900" font-family="Inter, system-ui, sans-serif">
  <defs>
    <linearGradient id="ctaGrad" x1="0" y1="0" x2="1" y2="0">
      <stop offset="0%" stop-color="#10B981"/>
      <stop offset="100%" stop-color="#059669"/>
    </linearGradient>
    <filter id="cardShadow" x="-10%" y="-10%" width="120%" height="120%">
      <feGaussianBlur in="SourceAlpha" stdDeviation="6"/>
      <feOffset dx="0" dy="3"/>
      <feComponentTransfer><feFuncA type="linear" slope="0.06"/></feComponentTransfer>
      <feMerge><feMergeNode/><feMergeNode in="SourceGraphic"/></feMerge>
    </filter>
  </defs>
  <rect width="1440" height="900" fill="#F9FAFB"/>

  <g>
    <rect width="1440" height="72" fill="#FFFFFF"/>
    <line x1="0" y1="72" x2="1440" y2="72" stroke="#E5E7EB"/>
    <g transform="translate(80, 22)">
      <circle cx="14" cy="14" r="14" fill="url(#ctaGrad)"/>
      <text x="38" y="20" fill="#111827" font-size="20" font-weight="700">SkillSeed</text>
      <text x="160" y="20" fill="#9CA3AF" font-size="13">· Acme Corp</text>
    </g>
    <g transform="translate(1280, 18)">
      <circle cx="20" cy="20" r="20" fill="#FEF3C7"/>
      <text x="20" y="28" text-anchor="middle" font-size="18">👩</text>
    </g>
  </g>

  <g transform="translate(80, 110)">
    <text x="0" y="0" fill="#111827" font-size="32" font-weight="800">📋 Audit Log</text>
    <text x="0" y="32" fill="#6B7280" font-size="14">Track all org-level activities for compliance and security</text>
    <g transform="translate(1100, -10)">
      <rect width="180" height="40" rx="20" fill="transparent" stroke="#D1D5DB"/>
      <text x="90" y="26" text-anchor="middle" fill="#374151" font-size="13">📥 Export CSV</text>
    </g>
  </g>

  <!-- Filters -->
  <g transform="translate(80, 200)">
    <rect width="320" height="44" rx="22" fill="#FFFFFF" stroke="#E5E7EB"/>
    <text x="20" y="28" fill="#9CA3AF" font-size="13">🔍 Search by user or action...</text>
    <g transform="translate(330, 0)">
      <rect width="180" height="44" rx="22" fill="transparent" stroke="#D1D5DB"/>
      <text x="90" y="28" text-anchor="middle" fill="#374151" font-size="13">📅 Last 7 days</text>
    </g>
    <g transform="translate(520, 0)">
      <rect width="160" height="44" rx="22" fill="transparent" stroke="#D1D5DB"/>
      <text x="80" y="28" text-anchor="middle" fill="#374151" font-size="13">All actions</text>
    </g>
    <g transform="translate(690, 0)">
      <rect width="160" height="44" rx="22" fill="transparent" stroke="#D1D5DB"/>
      <text x="80" y="28" text-anchor="middle" fill="#374151" font-size="13">All users</text>
    </g>
  </g>

  <!-- Log entries -->
  <g transform="translate(80, 270)">
    <rect width="1280" height="580" rx="12" fill="#FFFFFF" filter="url(#cardShadow)"/>

    <g transform="translate(0, 0)">
      <rect width="1280" height="40" rx="12" fill="#F9FAFB"/>
      <g transform="translate(20, 0)" fill="#9CA3AF" font-size="11" font-weight="700">
        <text x="0" y="26">TIMESTAMP</text>
        <text x="200" y="26">USER</text>
        <text x="400" y="26">ACTION</text>
        <text x="900" y="26">DETAILS</text>
        <text x="1240" y="26" text-anchor="end">IP</text>
      </g>
    </g>

    <g transform="translate(0, 48)">
      <rect width="1280" height="44" rx="0" fill="#FFFFFF"/>
      <line x1="20" y1="44" x2="1260" y2="44" stroke="#E5E7EB"/>
      <text x="0" y="22" fill="#6B7280" font-size="11">Sep 7, 14:32:18</text>
      <g transform="translate(180, 6)">
        <circle cx="14" cy="14" r="14" fill="#FEF3C7"/>
        <text x="14" y="22" text-anchor="middle" font-size="12">👩</text>
      </g>
      <text x="216" y="22" fill="#111827" font-size="12" font-weight="600">Mai Tran</text>
      <g transform="translate(380, 12)">
        <rect width="80" height="20" rx="10" fill="#D1FAE5"/>
        <text x="40" y="14" text-anchor="middle" fill="#047857" font-size="10" font-weight="700">✓ LOGIN</text>
      </g>
      <text x="480" y="22" fill="#374151" font-size="12">SSO login via Microsoft Entra ID</text>
      <text x="900" y="22" fill="#374151" font-size="11">User-agent: Chrome 119 / macOS</text>
      <text x="1240" y="22" text-anchor="end" fill="#9CA3AF" font-size="11" font-family="monospace">14.169.x.x</text>
    </g>

    <g transform="translate(0, 92)">
      <rect width="1280" height="44" rx="0" fill="#F9FAFB"/>
      <line x1="20" y1="44" x2="1260" y2="44" stroke="#E5E7EB"/>
      <text x="0" y="22" fill="#6B7280" font-size="11">Sep 7, 13:15:42</text>
      <g transform="translate(180, 6)">
        <circle cx="14" cy="14" r="14" fill="#FEF3C7"/>
        <text x="14" y="22" text-anchor="middle" font-size="12">👩</text>
      </g>
      <text x="216" y="22" fill="#111827" font-size="12" font-weight="600">Mai Tran</text>
      <g transform="translate(380, 12)">
        <rect width="100" height="20" rx="10" fill="#DBEAFE"/>
        <text x="50" y="14" text-anchor="middle" fill="#1E40AF" font-size="10" font-weight="700">⚙️ SETTINGS</text>
      </g>
      <text x="500" y="22" fill="#374151" font-size="12">Updated SSO config · Changed default role to "Member"</text>
      <text x="900" y="22" fill="#374151" font-size="11">—</text>
      <text x="1240" y="22" text-anchor="end" fill="#9CA3AF" font-size="11" font-family="monospace">14.169.x.x</text>
    </g>

    <g transform="translate(0, 136)">
      <rect width="1280" height="44" rx="0" fill="#FFFFFF"/>
      <line x1="20" y1="44" x2="1260" y2="44" stroke="#E5E7EB"/>
      <text x="0" y="22" fill="#6B7280" font-size="11">Sep 7, 11:48:01</text>
      <g transform="translate(180, 6)">
        <circle cx="14" cy="14" r="14" fill="#DBEAFE"/>
        <text x="14" y="22" text-anchor="middle" font-size="12">👨</text>
      </g>
      <text x="216" y="22" fill="#111827" font-size="12" font-weight="600">David Lee</text>
      <g transform="translate(380, 12)">
        <rect width="100" height="20" rx="10" fill="#D1FAE5"/>
        <text x="50" y="14" text-anchor="middle" fill="#047857" font-size="10" font-weight="700">✓ LOGIN</text>
      </g>
      <text x="500" y="22" fill="#374151" font-size="12">SSO login</text>
      <text x="900" y="22" fill="#374151" font-size="11">User-agent: Edge 119 / Windows</text>
      <text x="1240" y="22" text-anchor="end" fill="#9CA3AF" font-size="11" font-family="monospace">14.169.x.x</text>
    </g>

    <g transform="translate(0, 180)">
      <rect width="1280" height="44" rx="0" fill="#F9FAFB"/>
      <line x1="20" y1="44" x2="1260" y2="44" stroke="#E5E7EB"/>
      <text x="0" y="22" fill="#6B7280" font-size="11">Sep 7, 10:22:55</text>
      <g transform="translate(180, 6)">
        <circle cx="14" cy="14" r="14" fill="#FCE7F3"/>
        <text x="14" y="22" text-anchor="middle" font-size="12">👩</text>
      </g>
      <text x="216" y="22" fill="#111827" font-size="12" font-weight="600">Anna Kim</text>
      <g transform="translate(380, 12)">
        <rect width="100" height="20" rx="10" fill="#FEF3C7"/>
        <text x="50" y="14" text-anchor="middle" fill="#92400E" font-size="10" font-weight="700">⚠️ WARN</text>
      </g>
      <text x="500" y="22" fill="#374151" font-size="12">Failed login attempt (wrong password x3)</text>
      <text x="900" y="22" fill="#374151" font-size="11">Account temporarily locked</text>
      <text x="1240" y="22" text-anchor="end" fill="#EF4444" font-size="11" font-family="monospace">203.0.113.x</text>
    </g>

    <g transform="translate(0, 224)">
      <rect width="1280" height="44" rx="0" fill="#FFFFFF"/>
      <line x1="20" y1="44" x2="1260" y2="44" stroke="#E5E7EB"/>
      <text x="0" y="22" fill="#6B7280" font-size="11">Sep 7, 09:18:30</text>
      <g transform="translate(180, 6)">
        <circle cx="14" cy="14" r="14" fill="#FEF3C7"/>
        <text x="14" y="22" text-anchor="middle" font-size="12">👩</text>
      </g>
      <text x="216" y="22" fill="#111827" font-size="12" font-weight="600">Mai Tran</text>
      <g transform="translate(380, 12)">
        <rect width="80" height="20" rx="10" fill="#FCE7F3"/>
        <text x="40" y="14" text-anchor="middle" fill="#9D174D" font-size="10" font-weight="700">📧 INVITE</text>
      </g>
      <text x="500" y="22" fill="#374151" font-size="12">Invited <tspan fill="#10B981" font-weight="600">jane.smith@acme.com</tspan> as Member</text>
      <text x="900" y="22" fill="#374151" font-size="11">Invite pending acceptance</text>
      <text x="1240" y="22" text-anchor="end" fill="#9CA3AF" font-size="11" font-family="monospace">14.169.x.x</text>
    </g>

    <g transform="translate(0, 268)">
      <rect width="1280" height="44" rx="0" fill="#F9FAFB"/>
      <line x1="20" y1="44" x2="1260" y2="44" stroke="#E5E7EB"/>
      <text x="0" y="22" fill="#6B7280" font-size="11">Sep 6, 16:42:11</text>
      <g transform="translate(180, 6)">
        <circle cx="14" cy="14" r="14" fill="#FEF3C7"/>
        <text x="14" y="22" text-anchor="middle" font-size="12">👩</text>
      </g>
      <text x="216" y="22" fill="#111827" font-size="12" font-weight="600">Mai Tran</text>
      <g transform="translate(380, 12)">
        <rect width="100" height="20" rx="10" fill="#D1FAE5"/>
        <text x="50" y="14" text-anchor="middle" fill="#047857" font-size="10" font-weight="700">💳 BILLING</text>
      </g>
      <text x="500" y="22" fill="#374151" font-size="12">Added 50 seats · $1,450 charge</text>
      <text x="900" y="22" fill="#374151" font-size="11">Visa •••• 4242 · Receipt sent</text>
      <text x="1240" y="22" text-anchor="end" fill="#9CA3AF" font-size="11" font-family="monospace">14.169.x.x</text>
    </g>

    <g transform="translate(0, 312)">
      <rect width="1280" height="44" rx="0" fill="#FFFFFF"/>
      <line x1="20" y1="44" x2="1260" y2="44" stroke="#E5E7EB"/>
      <text x="0" y="22" fill="#6B7280" font-size="11">Sep 6, 14:00:00</text>
      <g transform="translate(180, 6)">
        <circle cx="14" cy="14" r="14" fill="#DBEAFE"/>
        <text x="14" y="22" text-anchor="middle" font-size="12">👨</text>
      </g>
      <text x="216" y="22" fill="#111827" font-size="12" font-weight="600">David Lee</text>
      <g transform="translate(380, 12)">
        <rect width="100" height="20" rx="10" fill="#D1FAE5"/>
        <text x="50" y="14" text-anchor="middle" fill="#047857" font-size="10" font-weight="700">✓ LOGIN</text>
      </g>
      <text x="500" y="22" fill="#374151" font-size="12">SSO login</text>
      <text x="900" y="22" fill="#374151" font-size="11">User-agent: Edge 119 / Windows</text>
      <text x="1240" y="22" text-anchor="end" fill="#9CA3AF" font-size="11" font-family="monospace">14.169.x.x</text>
    </g>

    <g transform="translate(0, 356)">
      <rect width="1280" height="44" rx="0" fill="#F9FAFB"/>
      <line x1="20" y1="44" x2="1260" y2="44" stroke="#E5E7EB"/>
      <text x="0" y="22" fill="#6B7280" font-size="11">Sep 5, 23:18:55</text>
      <g transform="translate(180, 6)">
        <circle cx="14" cy="14" r="14" fill="#9CA3AF"/>
        <text x="14" y="22" text-anchor="middle" fill="#FFFFFF" font-size="12">?</text>
      </g>
      <text x="216" y="22" fill="#111827" font-size="12" font-weight="600">unknown</text>
      <g transform="translate(380, 12)">
        <rect width="100" height="20" rx="10" fill="#FEE2E2"/>
        <text x="50" y="14" text-anchor="middle" fill="#991B1B" font-size="10" font-weight="700">🚫 DENIED</text>
      </g>
      <text x="500" y="22" fill="#374151" font-size="12">Blocked: login from non-corporate IP</text>
      <text x="900" y="22" fill="#374151" font-size="11">Auto-rejected by firewall rule</text>
      <text x="1240" y="22" text-anchor="end" fill="#EF4444" font-size="11" font-family="monospace">185.220.x.x</text>
    </g>

    <g transform="translate(0, 400)">
      <rect width="1280" height="44" rx="0" fill="#FFFFFF"/>
      <g transform="translate(0, 40)">
        <line x1="20" y1="0" x2="1260" y2="0" stroke="#E5E7EB"/>
      </g>
      <text x="0" y="22" fill="#6B7280" font-size="11">Sep 5, 11:00:18</text>
      <g transform="translate(180, 6)">
        <circle cx="14" cy="14" r="14" fill="#FEF3C7"/>
        <text x="14" y="22" text-anchor="middle" font-size="12">👩</text>
      </g>
      <text x="216" y="22" fill="#111827" font-size="12" font-weight="600">Mai Tran</text>
      <g transform="translate(380, 12)">
        <rect width="100" height="20" rx="10" fill="#D1FAE5"/>
        <text x="50" y="14" text-anchor="middle" fill="#047857" font-size="10" font-weight="700">✓ LOGIN</text>
      </g>
      <text x="500" y="22" fill="#374151" font-size="12">SSO login via Microsoft Entra ID</text>
      <text x="900" y="22" fill="#374151" font-size="11">User-agent: Chrome 119 / macOS</text>
      <text x="1240" y="22" text-anchor="end" fill="#9CA3AF" font-size="11" font-family="monospace">14.169.x.x</text>
    </g>

    <g transform="translate(0, 500)">
      <text x="20" y="0" fill="#6CA3AF" font-size="12">Showing 8 of 2,847 events · Logs retained for 90 days</text>
      <text x="1260" y="0" text-anchor="end" fill="#374151" font-size="13">← 1 2 3 ... 357 →</text>
    </g>
  </g>
</svg>
